<svg id="Andererseits_Logo" data-name="Andererseits Logo" xmlns="http://www.w3.org/2000/svg" width="300.001" height="83.45" viewBox="0 0 300.001 83.45">
  <path id="Pfad_14" data-name="Pfad 14" d="M17.181,49.549a12.547,12.547,0,0,1-4.51,1.52c-4.962.358-8.887-2.467-10.646-7.552A40.031,40.031,0,0,1,.174,34.162c-.716-7.481.873-14.584,3.093-21.6.1-.33.276-.82.426-1.284a10.169,10.169,0,0,0-1.293.161,1.338,1.338,0,0,1-1.343-1.125,1.534,1.534,0,0,1,.711-1.666,5.015,5.015,0,0,1,3.071-.765,11.669,11.669,0,0,1,7.6,3.325,20.258,20.258,0,0,1,3.794,4.025c.115-.866.093-1.662.214-2.313.223-1.2.882-1.783,1.821-1.656.862.115,1.312.759,1.286,1.953-.038,1.715-.058,3.072-.132,4.786-.015.355,0,1.361,0,1.361a14.063,14.063,0,0,0,.577,1.7c3.2,6.716,4.114,15.567,2.6,21.038a14.026,14.026,0,0,1-1.65,4.291,13.492,13.492,0,0,1-.82,1.083s.069.851.1,1.1c.192,1.829.265,2.781.488,4.617a13.9,13.9,0,0,1,.194,1.731c0,1.041-.493,1.708-1.268,1.817a1.618,1.618,0,0,1-1.686-1.422c-.234-1.213-.329-2.457-.49-3.688-.08-.623-.208-1.574-.283-2.085M7.048,11.6c-.468,1.175-.767,2.089-1.087,3.141-.568,1.859-1.076,3.739-1.536,5.629a42.111,42.111,0,0,0,.044,20.037,12.839,12.839,0,0,0,1.891,4.521A6.193,6.193,0,0,0,14.037,47.4a8.1,8.1,0,0,0,1.076-.439c.208-.109.592-.3.906-.489a8.223,8.223,0,0,0,.873-.665s-.086-1.244-.111-1.5c-.161-1.589-.311-3.187-.332-4.782-.066-5.035-.247-9.919-.124-14.95.026-.918-.018-1.9-.038-2.777l-.1-1.25s-.2-.452-.351-.713a15.886,15.886,0,0,0-1.193-1.976c-1.874-2.578-3.46-4.736-7.6-6.246M19.5,29.25c-.007,1.309-.082,5.484-.02,8.042.062,0-.007,6.3.055,6.3.046,0,.672-5.238.658-6.887A70.276,70.276,0,0,0,19.5,29.25" transform="translate(0 7.231)"/>
  <path id="Pfad_15" data-name="Pfad 15" d="M22.177,37.233c.349-1.031.729-2.051,1.039-3.094a48.329,48.329,0,0,1,6.211-12.955c.194-.291.385-.587.6-.861,2.313-2.952,4.786-2.819,6.5.575a16.818,16.818,0,0,1,1.3,6.386,209.718,209.718,0,0,1,.881,21.02c-.009.414.011.832-.033,1.242-.13,1.236-.345,2.053-1.355,2.055s-1.686-.7-1.821-1.938c-.058-.527,0-1.066-.022-1.6-.241-6.628-.455-13.256-.754-19.88a32.247,32.247,0,0,0-.694-4.374,14.171,14.171,0,0,0-.716-2.108,11.836,11.836,0,0,0-2.643,3.5,45.228,45.228,0,0,0-4.189,10.059c-.99,3.147-2.145,7.178-3.025,10.373-.322,1.179-.411,1.988-.661,3.017-.283,1.167-.868,1.788-1.763,1.892-1.195.138-1.471-.751-1.619-2.227-.267-2.649-.566-5.3-.672-7.96-.274-6.866-.433-13.735-.678-20.6-.079-2.187-.29-4.368-.426-6.551a5.865,5.865,0,0,1,.029-1.411c.172-.9.141-1.334,1.012-1.472a1.89,1.89,0,0,1,2.031,1.254,3.679,3.679,0,0,1,.212,1.037c.194,2.478.453,4.953.533,7.435.174,5.388.25,10.778.373,16.165.007.324.053.648.082.972l.263.052" transform="translate(14.563 9.44)"/>
  <path id="Pfad_16" data-name="Pfad 16" d="M49.526,37.663c-.265-2.62-.468-4.972-.745-7.314q-.745-6.259-1.573-12.5c-.137-1.052-.369-2.093-.583-3.132-.462-2.256-.912-4.514-1.425-6.756C44.86,6.465,44.42,5,44.026,3.517a8.236,8.236,0,0,1-.431-1.7A1.605,1.605,0,0,1,45.909.174c.933.441.946,1.192,1.268,2.407.955,3.624,1.655,6.118,2.315,9.718.278,1.51.63,3.615.882,5.131.378,2.271.687,4.2,1.028,6.478.21,1.4.426,3.153.564,4.564.1,1.058.194,2.287.318,3.343.342,2.873.292,4.567.625,7.442a18.753,18.753,0,0,1,.037,2.737c-.491,2.856-.734,4.744-1.323,7.521-.415,1.692-1.083,3.933-1.505,5.348a9.794,9.794,0,0,1-2.411,3.8c-1.487,1.112-2.552,1.035-4.291.742C38.1,57.315,34.3,53,34.3,46.257a53.905,53.905,0,0,1,.875-7.193A4.755,4.755,0,0,1,36.9,36.1c4.558-4.01,5.625-3.429,10.243-.675a16.857,16.857,0,0,1,2.384,2.237m-.071,4.217c-1.176-1-2.132-1.62-3.014-2.469a10.449,10.449,0,0,0-3.63-2.649,2.531,2.531,0,0,0-1.635.05A5.548,5.548,0,0,0,38.2,40.973c-.1.759-.349,1.5-.46,2.254-.871,5.978.919,9.98,5.431,12.347,1.995,1.048,2.614.907,3.6-1.188a15.341,15.341,0,0,0,.754-2.348c.194-.68.312-1.382.51-2.06a37.1,37.1,0,0,0,1.425-8.1" transform="translate(28.357 0)"/>
  <path id="Pfad_17" data-name="Pfad 17" d="M111.988,66.2a21.081,21.081,0,0,1-5.2-1.175,8.183,8.183,0,0,1-3.88-3.557,6.628,6.628,0,0,1-.817-2.658,23.9,23.9,0,0,1,1.454-10.446c1.867-4.589,4.624-8.778,7.25-12.922.9-1.422,1.228-1.754,2.181-3.143,1.449-2.108,3.476-4.889,4.549-6.6,1.887-3.647,2.035-6.58.482-8.924a2.666,2.666,0,0,0-4.293-.029c-.153.249-.292.508-.466.742a1.45,1.45,0,0,1-1.925.587,1.591,1.591,0,0,1-.908-2.072c.446-1.648,2.815-2.986,4.6-3.124a6.752,6.752,0,0,1,2.559.406,5.61,5.61,0,0,1,2.015,1.3,7.072,7.072,0,0,1,1.312,1.817,11.376,11.376,0,0,1,.4,8.87,33.54,33.54,0,0,1-3.034,5.045c-.9,1.426-1.745,2.645-2.7,4.035-1.313,1.917-2.4,3.519-3.661,5.472a56,56,0,0,0-6.436,12.727,12.774,12.774,0,0,0-.369,5.9,4.49,4.49,0,0,0,2.367,3.3A7.423,7.423,0,0,0,110.13,62.8c3.814.567,6.681.029,9.454-3.011,1.209-1.324,2.391-3.072,3.527-4.468a6.194,6.194,0,0,0,.879-1.947c.4-1.585.561-1.905.875-3.513.146-.744.563-1.336,1.237-1.392.7-.058,1.558.4,1.595,1.11a10.607,10.607,0,0,1-.225,2.428c-.058.391-.672,1.965-.742,2.358-1.255,3.584-5.1,7.329-8.18,10-2.269,1.133-3.438,1.911-6.562,1.84" transform="translate(84.341 11.797)"/>
  <path id="Pfad_18" data-name="Pfad 18" d="M80.509,32.649c.349,2,1.2,5.558,2.23,6.961a5.622,5.622,0,0,0,8.228,1.346,8.1,8.1,0,0,0,3.392-4.244,4.109,4.109,0,0,1,.406-.974,1.514,1.514,0,0,1,2.037-.707,1.836,1.836,0,0,1,.8,2.177A18.777,18.777,0,0,1,95.358,41.4c-4.15,5.514-13.244,5.624-16.194-1.765a34.817,34.817,0,0,1-1.617-5.589c-.073-.349-.1-.8-.152-1.1-.035-.23-.088-.679-.088-.679s-.25-.006-.426-.013c-.126-.006-.307-.013-.51-.025a1.923,1.923,0,0,1-.928-.2,1.676,1.676,0,0,1-.756-1.683,1.511,1.511,0,0,1,1.463-1.5,8.545,8.545,0,0,1,1.014.046c.2-.692.678-2.266.866-3a16.491,16.491,0,0,1,4.656-7.5c3.385-3.393,9.753-1.554,11.129,3.109.8,2.712-.74,6.227-3.316,8.23a13.911,13.911,0,0,1-8.518,2.911c-.5.012-.691-.021-1.474.021m-.155-3.339a8.992,8.992,0,0,0,4.766-.567,13.99,13.99,0,0,0,4.4-2.486,3.576,3.576,0,0,0,.029-5.524,4.2,4.2,0,0,0-5.248.594A18.5,18.5,0,0,0,82.39,23.61a12.021,12.021,0,0,0-2.037,5.7" transform="translate(61.75 15.249)"/>
  <path id="Pfad_19" data-name="Pfad 19" d="M52.608,30.867c-.04.36-.066.709-.077,1.048a11.868,11.868,0,0,0,.429,2.565,13.173,13.173,0,0,0,1.383,3.575,10,10,0,0,0,1.851,2.54,9.057,9.057,0,0,0,4.543,2.382A4.208,4.208,0,0,0,65.28,41.4c.409-.638.616-1.34,1.078-1.932a1.494,1.494,0,0,1,2.106-.429,1.6,1.6,0,0,1,.435,2.187,11.765,11.765,0,0,1-3.814,4.441,6.786,6.786,0,0,1-5.265.608A11.516,11.516,0,0,1,52.905,41.8,20.115,20.115,0,0,1,49.27,31.306a19.3,19.3,0,0,1,.417-4.64c.3-1.077,1.03-3.094,1.253-3.678,2-3.649,3.582-4.322,6.531-4.93a11.109,11.109,0,0,1,8.8,1.894A5.505,5.505,0,0,1,68.1,24.535c-.537,3.77-2.316,6.02-6.3,6.632a24.4,24.4,0,0,1-5.857.14c-1.063-.1-2.09-.318-3.339-.439m.2-3.385c2.165.374,2.726.443,4.563.667a16.05,16.05,0,0,0,3.643.092c2.42-.613,2.921-1.313,3.59-2.86a2.28,2.28,0,0,0-.5-2.745,8.39,8.39,0,0,0-5.944-1.424A5.616,5.616,0,0,0,54.3,23.63a31.56,31.56,0,0,0-1.5,3.853" transform="translate(40.723 16.331)"/>
  <path id="Pfad_20" data-name="Pfad 20" d="M146.488,31.052c-1.487-.107-2.722-.174-4.013-.272-1.118-.086-1.7-.594-1.746-1.512-.049-.995.568-1.666,1.737-1.714,1.454-.057,2.912-.013,4.445-.013.336-2.6.588-5.125,1.008-7.623.362-2.147.57-3.646,1.047-5.771a3.838,3.838,0,0,1,.232-.667c.438-1.02,1.3-1.6,2.1-1.351.82.251,1.072.661.93,1.729a7.921,7.921,0,0,1-.181,1.2c-.9,4.121-1.284,7.255-1.807,11.356-.029.226-.115.985-.133,1.3,1.593,0,3.275.042,4.837.006,1.3-.029,2.59-.169,3.886-.192,1.208-.023,1.874.535,1.931,1.493a1.64,1.64,0,0,1-1.739,1.744c-2.473.178-4.952.27-7.431.385-.5.025-1.142-.021-1.836-.021-.088.759-.082,1.461-.1,2.139-.144,4.613-.23,9.231-.407,13.844-.19,4.966-.446,9.928-.7,14.893-.06,1.185-.6,1.811-1.45,1.84a1.849,1.849,0,0,1-1.933-1.936c.051-2.363.446-4.763.533-7.128.184-5.085.376-10.111.532-15.2.064-2.07.095-4.184.133-6.254.013-.7.132-1.378.132-2.269" transform="translate(116.348 11.067)"/>
  <path id="Pfad_21" data-name="Pfad 21" d="M166.834,54.189a11.851,11.851,0,0,0-.53-3.467,9.574,9.574,0,0,0-2.715-4.395c-1.264-1.267-2.568-2.473-3.8-3.776a12.4,12.4,0,0,1-3.422-10.463,13.708,13.708,0,0,1,2.32-5.654,22.872,22.872,0,0,1,3.993-4.456,11.572,11.572,0,0,1,3.164-1.888,5.643,5.643,0,0,1,2.274-.265,5.318,5.318,0,0,1,1.838.564,10.371,10.371,0,0,1,2.262,1.4,9.088,9.088,0,0,1,1.988,2.352,1.592,1.592,0,1,1-2.654,1.748,14.219,14.219,0,0,0-2.32-2.292,3.626,3.626,0,0,0-3.288,0c-2.386,1.792-4.386,3.54-5.67,6.386a8.849,8.849,0,0,0,2.068,10.45c1.2,1.165,2.373,2.365,3.6,3.5,4.083,3.764,4.978,11.1,1.98,15.748a32.338,32.338,0,0,1-2.453,3.379,5.9,5.9,0,0,1-8.118,1.094,13.4,13.4,0,0,1-2.5-2.223c-.824-.964-1.609-2.181-2.336-3.233a6.354,6.354,0,0,1-.691-1.208,1.442,1.442,0,0,1,.815-1.788,1.76,1.76,0,0,1,2.081.391c.553.817,1.032,1.7,1.648,2.459a16.08,16.08,0,0,0,2.364,2.86c1.675,1.355,3.279.851,4.8-.68,2.258-2.277,3.306-4.916,3.3-6.542" transform="translate(125.461 18.153)"/>
  <path id="Pfad_22" data-name="Pfad 22" d="M124.02,28.976a20.132,20.132,0,0,0-1.441,6.187c-.188,3.916,4.112,7.053,7.457,6.147a11.939,11.939,0,0,0,6.385-4.1,10.344,10.344,0,0,1,.851-1.277,1.512,1.512,0,0,1,2.294,0,1.922,1.922,0,0,1,.212,2.388,28.556,28.556,0,0,1-3.758,3.87,12,12,0,0,1-8.4,2.465c-3.951-.435-8.474-4.339-8.283-9.415a24.131,24.131,0,0,1,4.315-13.095,8.971,8.971,0,0,1,3.043-2.264c2.108-.93,4.013-.236,6.123.608a3.421,3.421,0,0,1,1.766,4.426,7.019,7.019,0,0,1-8.147,4.7c-.765-.186-1.522-.4-2.422-.633m1.253-3.034c3.272,1.2,5.564.416,6.169-2.187-2.587-1.612-5.073-.93-6.169,2.187" transform="translate(98.664 17.817)"/>
  <path id="Pfad_23" data-name="Pfad 23" d="M67.83,27.224c.968-2.089,1.745-3.927,2.662-5.683a29.02,29.02,0,0,1,2.1-3.2,4.8,4.8,0,0,1,4.662-1.934,5.158,5.158,0,0,1,3.975,2.459,1.663,1.663,0,0,1-.384,1.817,1.626,1.626,0,0,1-1.7.276c-.448-.081-.853-.554-1.244-.878a2.057,2.057,0,0,0-3.014.351,6.447,6.447,0,0,0-1.173,1.708A34.1,34.1,0,0,0,69.37,33.664c-.358,1.827-.733,3.81-.961,5.685-.256,2.108-.267,4.525-.433,6.645a11.029,11.029,0,0,1-.157,1.579,1.282,1.282,0,0,1-1.348,1.081,1.479,1.479,0,0,1-1.365-.564,2.894,2.894,0,0,1-.332-1.5c.018-7.517-.216-15.571-.221-23.087,0-2.781.166-5.721.1-8.5a7.3,7.3,0,0,1,.066-1.811,1.5,1.5,0,0,1,1.723-1.006,1.416,1.416,0,0,1,1.35,1.34,4.16,4.16,0,0,1,.053.707q-.027,6.118-.058,12.24c0,.174.02.351.048.753" transform="translate(53.371 11.163)"/>
  <path id="Pfad_24" data-name="Pfad 24" d="M96.015,22.937c.338-.916.612-1.94.972-2.844,1.133-2.841,2.616-5.376,5.367-6.829a7.736,7.736,0,0,1,4.063-1.018c2.327.121,4.779,2.766,4.432,5.2-.261.84-.6,1.079-.965,1.217-.332.127-1.259.309-1.536-.217-.349-.594-.3-1.254-.594-1.89a2.672,2.672,0,0,0-3.126-.7,5.875,5.875,0,0,0-3.812,3.532,65.614,65.614,0,0,0-3.129,7.885A50.825,50.825,0,0,0,95.748,39.1c-.305,3.532-.462,5.821-.612,9.624-.1.882.027,2.43-.075,3.312a1.7,1.7,0,0,1-2.03,1.635c-.751-.107-1.184-.594-1.123-1.894.088-1.832.3-3.657.382-5.489.245-5.556.438-11.161.543-16.721.086-4.612.108-9.189.058-13.8a5.393,5.393,0,0,1,.044-.749,1.484,1.484,0,0,1,1.511-1.137,1.465,1.465,0,0,1,1.355.794,3.643,3.643,0,0,1,.384,1.631c.018,2.128-.2,3.651-.2,5.781,0,.445.035.855.035.855" transform="translate(75.983 11.218)"/>
  <path id="Pfad_25" data-name="Pfad 25" d="M139.368,23.423c-.066.705-.442,3.475-.78,6.528-.415,3.764-.844,5.942-1.485,10.132-.336,2.584-.449,5.252-.617,7.611a24.816,24.816,0,0,1-.179,2.511,1.427,1.427,0,0,1-1.467,1.267c-.776-.025-1.555-.339-1.7-1.133a13.768,13.768,0,0,1,0-1.863c.283-3.617.669-6.557,1.105-10.147.875-5.884,1.905-12.069,1.984-18.013a30.784,30.784,0,0,1,.256-3.2,1.517,1.517,0,0,1,1.613-1.47c.868-.021,1.608.217,1.648,1.305.042,1.119-.174,2.246-.225,3.368-.033.818-.121,2.819-.155,3.107" transform="translate(110.052 14.339)"/>
  <path id="Pfad_26" data-name="Pfad 26" d="M136.687,14.267a1.681,1.681,0,0,1-1.71-1.771,2.058,2.058,0,0,1,1.947-1.842,1.632,1.632,0,0,1,1.65,1.811,1.761,1.761,0,0,1-1.887,1.8" transform="translate(111.594 9.767)"/>
</svg>
