<svg xmlns="http://www.w3.org/2000/svg" width="94.009" height="60.592" viewBox="0 0 94.009 60.592">
  <g id="Grüne" transform="translate(-0.003 -0.004)">
    <g id="g5256" transform="translate(0.058 47.136)">
      <path id="path50" d="M699.956,592.455c.677,0,1.354,0,2.031,0q-.279,1.119-.578,2.234c-.671,0-1.343,0-2.014,0C699.576,593.94,699.769,593.2,699.956,592.455Z" transform="translate(-643.807 -592.452)" fill="none" stroke="#110c0f" stroke-width="0.1"/>
      <path id="path54" d="M735.977,592.488c.676,0,1.352,0,2.029,0-.178.746-.368,1.49-.564,2.232-.678,0-1.355,0-2.033,0C735.605,593.976,735.784,593.23,735.977,592.488Z" transform="translate(-676.957 -592.483)" fill="none" stroke="#110c0f" stroke-width="0.1"/>
      <path id="path58" d="M377.293,626.916a8.322,8.322,0,0,1,4.267-.383,3.666,3.666,0,0,1,2.46,1.19,2.78,2.78,0,0,1,.285,2.266c-1.224.007-2.449.01-3.673,0a2.4,2.4,0,0,0,.049-1.389.773.773,0,0,0-.926-.317,1.472,1.472,0,0,0-.905.839,12.541,12.541,0,0,0-.825,2.518,17.4,17.4,0,0,0-.488,2.388,1.253,1.253,0,0,0,.38,1.146,1.317,1.317,0,0,0,1.791-.5,7.513,7.513,0,0,0,.525-1.595c-.37-.005-.741,0-1.111,0,.148-.609.319-1.211.468-1.819,1.517-.019,3.034-.011,4.551,0-.479,1.874-.972,3.744-1.449,5.619q-1.712.005-3.424,0,.076-.34.179-.671a3.361,3.361,0,0,1-1.876.935h-.927a3.549,3.549,0,0,1-1.514-.524,2.611,2.611,0,0,1-1.11-1.813,7.429,7.429,0,0,1,.1-2.3,12.566,12.566,0,0,1,1.026-3.423A4.454,4.454,0,0,1,377.293,626.916Z" transform="translate(-344.274 -623.723)" fill="none" stroke="#110c0f" stroke-width="0.1"/>
      <path id="path60" d="M377.293,626.916a8.322,8.322,0,0,1,4.267-.383,3.666,3.666,0,0,1,2.46,1.19,2.78,2.78,0,0,1,.285,2.266c-1.224.007-2.449.01-3.673,0a2.4,2.4,0,0,0,.049-1.389.773.773,0,0,0-.926-.317,1.472,1.472,0,0,0-.905.839,12.541,12.541,0,0,0-.825,2.518,17.4,17.4,0,0,0-.488,2.388,1.253,1.253,0,0,0,.38,1.146,1.317,1.317,0,0,0,1.791-.5,7.513,7.513,0,0,0,.525-1.595c-.37-.005-.741,0-1.111,0,.148-.609.319-1.211.468-1.819,1.517-.019,3.034-.011,4.551,0-.479,1.874-.972,3.744-1.449,5.619q-1.712.005-3.424,0,.076-.34.179-.671a3.361,3.361,0,0,1-1.876.935h-.927a3.549,3.549,0,0,1-1.514-.524,2.611,2.611,0,0,1-1.11-1.813,7.429,7.429,0,0,1,.1-2.3,12.566,12.566,0,0,1,1.026-3.423A4.454,4.454,0,0,1,377.293,626.916Z" transform="translate(-344.274 -623.723)"/>
      <path id="path62" d="M3.256,629.987c1.1-.027,2.2,0,3.3-.011a20.633,20.633,0,0,1,3.057.116A2.556,2.556,0,0,1,11.4,631.18a3.889,3.889,0,0,1,.41,2.377,12.974,12.974,0,0,1-.762,3.3A4.73,4.73,0,0,1,8.941,639.6a7.908,7.908,0,0,1-3.82.533c-1.466,0-2.932.007-4.4,0a4.051,4.051,0,0,1,.044-.445C1.591,636.453,2.442,633.225,3.256,629.987Z" transform="translate(-0.724 -626.989)" fill="none" stroke="#110c0f" stroke-width="0.1"/>
      <path id="path64" d="M4.906,629.971c-.55,0-1.1,0-1.649.014-.814,3.237-1.665,6.466-2.488,9.7a4.032,4.032,0,0,0-.044.444c1.466.01,2.932,0,4.4,0a7.905,7.905,0,0,0,3.819-.533,4.73,4.73,0,0,0,2.106-2.745,12.984,12.984,0,0,0,.764-3.3,3.89,3.89,0,0,0-.412-2.377,2.554,2.554,0,0,0-1.788-1.088,20.61,20.61,0,0,0-3.057-.115C6.005,629.976,5.456,629.972,4.906,629.971Zm2.031,1.713a1.691,1.691,0,0,1,1.086.241,1.525,1.525,0,0,1,.267,1.239,19.047,19.047,0,0,1-.505,2.5,5.635,5.635,0,0,1-1.074,2.262,2.408,2.408,0,0,1-1.886.5c.563-2.251,1.166-4.493,1.734-6.743C6.681,631.688,6.809,631.685,6.937,631.683Z" transform="translate(-0.725 -626.985)"/>
      <path id="path66" d="M141.508,629.993q1.877-.009,3.754,0-1.306,5.082-2.632,10.159c-1.246-.006-2.492,0-3.738,0C139.737,636.758,140.641,633.38,141.508,629.993Z" transform="translate(-127.899 -627.002)" fill="none" stroke="#110c0f" stroke-width="0.1"/>
      <path id="path68" d="M141.508,629.993q1.877-.009,3.754,0-1.306,5.082-2.632,10.159c-1.246-.006-2.492,0-3.738,0C139.737,636.758,140.641,633.38,141.508,629.993Z" transform="translate(-127.899 -627.002)"/>
      <path id="path70" d="M212.768,629.994q3.507-.012,7.015,0-.269,1.051-.545,2.1l-.053.036c-1.1.025-2.209-.01-3.312.017-.132.555-.284,1.1-.416,1.66,1.016.006,2.032,0,3.049,0-.17.715-.38,1.419-.547,2.134-1.024.027-2.048,0-3.072.013-.17.676-.352,1.349-.52,2.025,1.18,0,2.359.005,3.539,0-.177.725-.383,1.443-.559,2.169q-3.6,0-7.207,0Q211.45,635.071,212.768,629.994Z" transform="translate(-193.478 -627.003)" fill="none" stroke="#110c0f" stroke-width="0.1"/>
      <path id="path72" d="M212.768,629.994q3.507-.012,7.015,0-.269,1.051-.545,2.1l-.053.036c-1.1.025-2.209-.01-3.312.017-.132.555-.284,1.1-.416,1.66,1.016.006,2.032,0,3.049,0-.17.715-.38,1.419-.547,2.134-1.024.027-2.048,0-3.072.013-.17.676-.352,1.349-.52,2.025,1.18,0,2.359.005,3.539,0-.177.725-.383,1.443-.559,2.169q-3.6,0-7.207,0Q211.45,635.071,212.768,629.994Z" transform="translate(-193.478 -627.003)"/>
      <path id="path74" d="M509.781,630h5.64a3.5,3.5,0,0,1,2.081.545,1.718,1.718,0,0,1,.675,1.282,2.969,2.969,0,0,1-1.531,2.819,3.479,3.479,0,0,1-1.318.39,1.8,1.8,0,0,1,1.172.96,5.577,5.577,0,0,1,.143,2.358c-.021.6-.225,1.293.181,1.813-1.255-.022-2.51.011-3.765-.014a.786.786,0,0,1-.262-.679c.048-.852.182-1.7.187-2.554a.913.913,0,0,0-.275-.708,1.333,1.333,0,0,0-.81-.2c-.375,1.374-.718,2.757-1.07,4.138-1.223.023-2.447,0-3.671.011C508.014,636.768,508.908,633.385,509.781,630Z" transform="translate(-466.865 -627.01)" fill="none" stroke="#110c0f" stroke-width="0.1"/>
      <path id="path76" d="M509.774,630c-.872,3.388-1.768,6.77-2.624,10.162,1.223-.008,2.448.013,3.672-.01.353-1.38.695-2.765,1.07-4.139a1.332,1.332,0,0,1,.81.2.912.912,0,0,1,.274.708c-.005.855-.138,1.7-.187,2.554a.785.785,0,0,0,.263.678c1.254.025,2.509-.006,3.763.016-.407-.52-.2-1.213-.181-1.814a5.573,5.573,0,0,0-.141-2.357,1.8,1.8,0,0,0-1.174-.961,3.479,3.479,0,0,0,1.319-.39,2.97,2.97,0,0,0,1.531-2.82,1.714,1.714,0,0,0-.674-1.281,3.508,3.508,0,0,0-2.083-.545Zm3.515,1.693a1.3,1.3,0,0,1,.863.209,1.137,1.137,0,0,1,.175,1.09,1.733,1.733,0,0,1-.71,1.187,2.52,2.52,0,0,1-1.3.171c.213-.887.461-1.767.668-2.655C513.085,631.7,513.186,631.693,513.288,631.692Z" transform="translate(-466.858 -627.012)"/>
      <path id="path78" d="M650.005,629.986q1.87-.008,3.741,0c-.544,2.174-1.142,4.335-1.666,6.513a2.579,2.579,0,0,0-.1,1.387.732.732,0,0,0,1.07.315,1.663,1.663,0,0,0,.6-1.062c.6-2.387,1.225-4.766,1.838-7.149,1.243-.011,2.486-.009,3.729,0q-.821,3.181-1.643,6.362a6.025,6.025,0,0,1-1.341,2.89,5.176,5.176,0,0,1-3.412,1.166h-.708a6.365,6.365,0,0,1-2.61-.536,2.261,2.261,0,0,1-1.253-1.515,6.341,6.341,0,0,1,.32-2.819Q649.288,632.76,650.005,629.986Z" transform="translate(-596.673 -626.996)" fill="none" stroke="#110c0f" stroke-width="0.1"/>
      <path id="path52" d="M652.822,592.455c.677,0,1.354,0,2.031,0q-.279,1.119-.578,2.234c-.671,0-1.343,0-2.014,0C652.442,593.94,652.635,593.2,652.822,592.455Zm2.872,0c.676,0,1.352,0,2.029,0-.178.746-.368,1.49-.564,2.232-.678,0-1.355,0-2.033,0C655.322,593.944,655.5,593.2,655.694,592.456Zm-5.689,2.986q1.87-.008,3.741,0c-.544,2.174-1.142,4.335-1.666,6.513a2.579,2.579,0,0,0-.1,1.387.732.732,0,0,0,1.07.315,1.663,1.663,0,0,0,.6-1.062c.6-2.387,1.225-4.766,1.838-7.149,1.243-.011,2.486-.009,3.729,0q-.821,3.181-1.643,6.362a6.025,6.025,0,0,1-1.341,2.89,5.176,5.176,0,0,1-3.412,1.166h-.708a6.364,6.364,0,0,1-2.61-.536,2.261,2.261,0,0,1-1.253-1.515,6.341,6.341,0,0,1,.32-2.819Q649.288,598.216,650.005,595.442Z" transform="translate(-596.673 -592.452)"/>
      <path id="path82" d="M780.394,629.985c1.454-.019,2.908-.012,4.362,0,.169,1.832.4,3.659.543,5.493.366-1.843.872-3.656,1.283-5.489,1.087-.024,2.175-.007,3.263-.008-.869,3.385-1.756,6.766-2.622,10.152-1.423.01-2.846.013-4.268,0-.183-1.852-.418-3.7-.562-5.556-.435,1.859-.892,3.712-1.339,5.568-1.088-.008-2.177,0-3.265,0C778.624,636.745,779.542,633.373,780.394,629.985Z" transform="translate(-715.964 -626.988)" fill="none" stroke="#110c0f" stroke-width="0.1"/>
      <path id="path84" d="M780.394,629.985c1.454-.019,2.908-.012,4.362,0,.169,1.832.4,3.659.543,5.493.366-1.843.872-3.656,1.283-5.489,1.087-.024,2.175-.007,3.263-.008-.869,3.385-1.756,6.766-2.622,10.152-1.423.01-2.846.013-4.268,0-.183-1.852-.418-3.7-.562-5.556-.435,1.859-.892,3.712-1.339,5.568-1.088-.008-2.177,0-3.265,0C778.624,636.745,779.542,633.373,780.394,629.985Z" transform="translate(-715.964 -626.988)"/>
      <path id="path86" d="M923.051,629.989c2.341-.015,4.683-.01,7.024,0-.179.713-.372,1.423-.555,2.135-1.119.025-2.238-.008-3.357.016-.13.555-.279,1.1-.42,1.656,1.017.016,2.034,0,3.051.008-.172.715-.367,1.423-.55,2.135-1.019.028-2.039,0-3.059.016-.18.671-.354,1.344-.53,2.017,1.178.013,2.356.006,3.534,0-.165.728-.368,1.448-.561,2.17-2.094-.005-4.187,0-6.281,0a9.16,9.16,0,0,1-.92-.018Q921.755,635.06,923.051,629.989Z" transform="translate(-847.255 -626.993)" fill="none" stroke="#110c0f" stroke-width="0.1"/>
      <path id="path88" d="M923.051,629.989c2.341-.015,4.683-.01,7.024,0-.179.713-.372,1.423-.555,2.135-1.119.025-2.238-.008-3.357.016-.13.555-.279,1.1-.42,1.656,1.017.016,2.034,0,3.051.008-.172.715-.367,1.423-.55,2.135-1.019.028-2.039,0-3.059.016-.18.671-.354,1.344-.53,2.017,1.178.013,2.356.006,3.534,0-.165.728-.368,1.448-.561,2.17-2.094-.005-4.187,0-6.281,0a9.16,9.16,0,0,1-.92-.018Q921.755,635.06,923.051,629.989Z" transform="translate(-847.255 -626.993)"/>
      <path id="path90" d="M1032.166,629.975q2.181-.02,4.363,0c.154,1.857.441,3.7.52,5.568.384-1.869.878-3.712,1.313-5.569,1.081-.015,2.162,0,3.244-.008v.12c-.426,1.491-.784,3-1.181,4.5-.487,1.847-.95,3.7-1.443,5.546-1.418-.006-2.836,0-4.253-.005-.177-1.857-.44-3.706-.546-5.568-.471,1.851-.9,3.713-1.354,5.569-1.091.008-2.182,0-3.272.006C1030.4,636.74,1031.312,633.365,1032.166,629.975Z" transform="translate(-947.701 -626.98)" fill="none" stroke="#110c0f" stroke-width="0.1"/>
      <path id="path92" d="M1032.166,629.975q2.181-.02,4.363,0c.154,1.857.441,3.7.52,5.568.384-1.869.878-3.712,1.313-5.569,1.081-.015,2.162,0,3.244-.008v.12c-.426,1.491-.784,3-1.181,4.5-.487,1.847-.95,3.7-1.443,5.546-1.418-.006-2.836,0-4.253-.005-.177-1.857-.44-3.706-.546-5.568-.471,1.851-.9,3.713-1.354,5.569-1.091.008-2.182,0-3.272.006C1030.4,636.74,1031.312,633.365,1032.166,629.975Z" transform="translate(-947.701 -626.98)"/>
      <path id="path16" d="M318.091.054c-1.149.36-2.421.078-3.54.565-.432.1-.883.051-1.319.135-.792.139-1.584.275-2.373.426-.6.127-1.228-.026-1.83.119-1.02.226-2.04.447-3.061.67-.452.109-.926-.056-1.372.091q-1.982.571-3.964,1.136a2.191,2.191,0,0,0-.382.151,4.978,4.978,0,0,1-1.158.38c.137-.09.278-.174.42-.259-.026-.1-.05-.2-.074-.3a8.832,8.832,0,0,0-1.178.346,11.383,11.383,0,0,1-1.784.513c-.084-.062-.166-.125-.249-.187a5.115,5.115,0,0,0-1.106.358,5.715,5.715,0,0,1-1.571.388c-.555.111-1.019.471-1.575.577a5.668,5.668,0,0,0-1.331.543c-.24.129-.538.018-.768.165-.387.248-.811.431-1.2.67-.13-.033-.257-.068-.386-.1a.741.741,0,0,1-.211.708c.022-.2.045-.409.06-.615-.383.03-.72.316-1.112.189a6.363,6.363,0,0,1-.933.44,6.117,6.117,0,0,0-1.526.625,13.646,13.646,0,0,0-2.715,1.323,1,1,0,0,0-.593.418c-.222.03-.442.066-.662.105q-.033.16-.064.32c.733.048,1.318-.462,1.973-.7.73-.259,1.365-.744,2.122-.933a1.082,1.082,0,0,1-.561.284c-.014.137-.022.275-.04.412-.052-.082-.1-.168-.151-.251a3.019,3.019,0,0,0-.889.392c-.436.243-.906.417-1.351.64a9.925,9.925,0,0,1-1.5.436,8.4,8.4,0,0,0-1.136.549c.21.026.422.044.633.074-.367.19-.729-.08-1.09-.145a3.423,3.423,0,0,1-.2.336c-.206.172-.487.236-.666.444a1.755,1.755,0,0,1-.611.491,7.13,7.13,0,0,1-.921.276c-.226.187-.345.49-.617.627-.109.02-.211-.061-.314-.086,0,.147,0,.293,0,.44a3.219,3.219,0,0,1-.465.185c-.121-.038-.223-.145-.352-.145-.179.231-.439.379-.615.613a2.567,2.567,0,0,1-.752.5,20.74,20.74,0,0,0-3.674,3.017c-.342.3-.558.72-.945.969-.255.151-.327.462-.527.664a4.082,4.082,0,0,0-.75,1.136c-.115.262-.121.558-.245.816-.191.239-.5.336-.716.545a1.577,1.577,0,0,0-.233.955l.364-.05a7.362,7.362,0,0,0-.342.823c-.1.271-.374.5-.28.812a6.327,6.327,0,0,0,.36,1.651,1.772,1.772,0,0,1-.006.368l.2-.143a6.182,6.182,0,0,1,.231.833c-.121-.173-.232-.354-.352-.527a1.276,1.276,0,0,0,.243.879,5.528,5.528,0,0,1,.4.563,17.093,17.093,0,0,0,1.086,1.458,9.824,9.824,0,0,0,2.285,2.178,15.791,15.791,0,0,0,4.4,2.019,32.34,32.34,0,0,0,11.529.941,48.04,48.04,0,0,0,10.894-2.1,66.134,66.134,0,0,0,8.469-3.3q2.918-1.335,5.836-2.671c.323-.149.563-.427.891-.569-.222.208-.46.4-.67.619l.143.185c-.467.381-1.01.651-1.476,1.032-1.005.631-2.058,1.182-3.087,1.772-.316.18-.605.405-.937.557-.524.227-1,.539-1.5.814-.611.354-1.246.67-1.83,1.068l.217.161c-.023.093-.046.186-.066.28a4.676,4.676,0,0,0,1.6-.543c.686-.421,1.425-.743,2.124-1.14a15.5,15.5,0,0,1,1.768-.965,3.777,3.777,0,0,1-.9.555c-.523.3-1.072.56-1.579.889a8.768,8.768,0,0,0-.961.551c-.384.352-.927.423-1.349.716-.781.365-1.535.8-2.347,1.092-.235.083-.37.312-.593.416-.28.147-.665.21-.76.563.461.087.806-.277,1.223-.392.838-.259,1.546-.819,2.389-1.064a14.48,14.48,0,0,1-1.971.993c-.265.11-.478.318-.75.412a9.519,9.519,0,0,0-1.659.688,1,1,0,0,0,1.1-.062.7.7,0,0,0,.613.111,11.307,11.307,0,0,0,2.216-1,.917.917,0,0,1-.428.374c-.557.2-1.083.487-1.649.664a4.357,4.357,0,0,0-.817.31c-.227.194-.394.447-.619.644-.3.261-.482.646-.843.831a2.955,2.955,0,0,0-1.062.744,8.658,8.658,0,0,1-.332,1.032,5.08,5.08,0,0,0,.265.933c.376.012.758-.165,1.124-.016.247.061.51.262.764.115a7.558,7.558,0,0,1,.983-.43c.923-.3,1.761-.8,2.661-1.158.3-.119.623-.2.917-.35.386-.187.693-.5,1.082-.682a9.9,9.9,0,0,0,1.6-.784c.382-.27.83-.426,1.217-.688.438-.3.976-.419,1.39-.76.322-.268.771-.313,1.082-.6.356-.289.75-.523,1.132-.776a4.769,4.769,0,0,0,.879-.555,6.57,6.57,0,0,1,1.136-.76,5.448,5.448,0,0,0,.971-.792c.344-.327.78-.535,1.12-.867.453-.477.984-.873,1.408-1.378a5.9,5.9,0,0,0,1.128-1.251,3.174,3.174,0,0,1,.531-.583c.121-.208.185-.444.306-.652.281-.5.636-.961.9-1.474a25.885,25.885,0,0,0,1.707-3.8,6.4,6.4,0,0,0,.378-1.116,4.035,4.035,0,0,0,.014-1.83,2.236,2.236,0,0,0-.724-1.112,4.258,4.258,0,0,0-1.766-.65,2.355,2.355,0,0,0-.9-.213,10.408,10.408,0,0,1-1.681-.292c-.18-.05-.318.114-.467.181q-.033-.164-.064-.328l-.195.08c-.011.094-.019.188-.028.282a14.73,14.73,0,0,1-3.3-.093l.362-.038c0-.151,0-.3.008-.452a8.69,8.69,0,0,0-1.746.139c-1.015.178-2.042.279-3.065.392a5,5,0,0,0-1.408.185c-.29.126-.594-.059-.893-.014a1.086,1.086,0,0,0-1.05.567,2.042,2.042,0,0,0,.694-.07c.471-.149.974-.027,1.452-.139a9.788,9.788,0,0,1,1.607-.241,1.261,1.261,0,0,1,.617.161c.432-.357,1.023-.2,1.528-.143a4.942,4.942,0,0,1,1.211.255,23.16,23.16,0,0,0-2.647.4,37.367,37.367,0,0,0-3.815.467c-.613.082-1.21.254-1.826.316-1.343.14-2.688.262-4.028.434a7.707,7.707,0,0,0-.772.163,9.933,9.933,0,0,1-1.07.086c-.6.074-1.156.349-1.75.457-.389.081-.787.081-1.178.145-.281.044-.545.158-.827.193-.465.071-.938.021-1.4.093-.339.055-.58.348-.919.4a8.6,8.6,0,0,0-1.193.169c-.556.346-1.244.625-1.512,1.273-.147.319-.156.817.229.967a7.447,7.447,0,0,0,1.991.3c1.355.117,2.715.145,4.074.179.658-.024,1.318-.034,1.975-.076,1.612-.141,3.215-.361,4.829-.479,1.2-.116,2.41-.161,3.614-.253a10.088,10.088,0,0,1,1.04-.042,5.712,5.712,0,0,1-1.5,1,32.325,32.325,0,0,1-3.725,1.5c-2.6.885-5.227,1.668-7.89,2.323-1.6.368-3.212.642-4.827.905a32.973,32.973,0,0,1-5.927.483,23.807,23.807,0,0,1-6.361-.849,5.4,5.4,0,0,1-2.781-1.6,1.665,1.665,0,0,1-.083-1.673,5.194,5.194,0,0,1,1.026-1.589A20.921,20.921,0,0,1,276.6,20.99a18.7,18.7,0,0,1,1.764-1.331c1.177-.794,2.381-1.547,3.574-2.315a92.028,92.028,0,0,1,12.9-6.263c1.715-.762,3.5-1.341,5.257-2,1.484-.579,3.036-.953,4.553-1.432,1.8-.563,3.639-1.021,5.454-1.551,1.451-.437,2.929-.779,4.4-1.14,2.137-.538,4.311-.909,6.468-1.355,2.482-.532,4.975-1.013,7.443-1.607a7.6,7.6,0,0,0,1.205-.378.2.2,0,0,0,.127-.294,7.1,7.1,0,0,0-1.506.054,8.755,8.755,0,0,1-1.05.245c-.337,0-.668-.079-1-.107a15.651,15.651,0,0,0-1.653.02c.153-.066.309-.122.467-.177.006-.079.015-.158.024-.237a2.353,2.353,0,0,0-1.042.044,4.154,4.154,0,0,1-1.14-.034c-.274.006-.531-.126-.806-.1a4.316,4.316,0,0,0-1.01.263c-.584.128-1.176.219-1.754.372-.369.11-.768.031-1.128.175a4.014,4.014,0,0,1-1.116.078c-.219.041-.374-.177-.587-.167a4.954,4.954,0,0,0-.877.217c-.24.032-.368.282-.6.324a7.635,7.635,0,0,1-1.472.123,4.448,4.448,0,0,1,.987-.436A6.254,6.254,0,0,1,315.9,1.2c.853-.261,1.714-.491,2.562-.768.008-.125.018-.251.03-.376ZM298.408,3.765a.264.264,0,0,1,.165.042c.022.136-.424.205-.326.018A.3.3,0,0,1,298.408,3.765ZM287.681,6.876l-.1.2c.031.082.063.165.1.247l-.221.018-.1-.189C287.459,7.062,287.568,6.967,287.681,6.876Zm-.907.593a3.447,3.447,0,0,1-.808.219l.04-.133A3.732,3.732,0,0,1,286.774,7.469Zm-1.436.418a.586.586,0,0,1,.271.044,1.216,1.216,0,0,0-.746.231l.014-.2C285.027,7.943,285.184,7.895,285.338,7.887ZM266.243,21.935c.078.034.155.068.233.1a2.907,2.907,0,0,1-.131.308C266.305,22.211,266.272,22.073,266.243,21.935Zm47.779-5.922c.244-.343.681-.266,1.04-.244.184.086.4.227.29.459A2.718,2.718,0,0,0,314.022,16.013ZM303.4,17a1.833,1.833,0,0,1,1.55-.344,3.207,3.207,0,0,1-.117.446,11.812,11.812,0,0,1-1.29,0Zm-2.289.017a7.628,7.628,0,0,1,1.728-.238.564.564,0,0,1,.513.27c-.545.029-1.092.006-1.636.056a1.438,1.438,0,0,0-.614.26C301.1,17.252,301.1,17.136,301.107,17.021Z" transform="translate(-244.577 -47.186)" fill="#6ca425"/>
    </g>
  </g>
</svg>
