<!-- Created with Inkscape (http://www.inkscape.org/) -->
<svg xmlns:rdf="http://www.w3.org/1999/02/22-rdf-syntax-ns#" xmlns="http://www.w3.org/2000/svg" height="158" width="419" version="1.1" xmlns:cc="http://creativecommons.org/ns#" xmlns:dc="http://purl.org/dc/elements/1.1/">
	<metadata>
		<rdf:RDF>
			<cc:Work rdf:about="">
				<dc:format>image/svg+xml</dc:format>
				<dc:type rdf:resource="http://purl.org/dc/dcmitype/StillImage"/>
				<dc:title/>
			</cc:Work>
		</rdf:RDF>
	</metadata>
	<rect transform="matrix(1,0,-0.19029,0.98173,0,0)" height="50.225" width="24.894" y="4.6015" x="353.47" fill="#E4013B"/>
	<path fill="#000" d="m329.09,156.51c-13.72-0.54-24.28-3.17-32.62-8.11-5.26-3.12-10.5-8.39-13.83-13.91-3.62-6.02-5.81-12.46-6.78-19.99-0.39-3.07-0.39-12.05,0-15.562,1.86-16.493,6.75-31.149,14.34-43.024,3.13-4.9,6.23-8.742,10.48-12.998,10.11-10.12,22.09-16.881,36.12-20.391,4.3-1.074,9.59-2.022,9.56-1.713,0,0.07-1.53,7.872-3.4,17.328l-3.39,17.192-1.41,0.847c-8.7,5.239-14.13,13.844-17.68,28.053-2.56,10.213-3.25,19.188-1.95,25.448,1.2,5.83,4.44,10.17,9.46,12.68,7.34,3.68,19.2,2.97,27.19-1.61,7.01-4.02,11.6-10.14,15.29-20.41,2.06-5.786,3.91-13.552,4.79-20.254,0.34-2.569,0.39-9.237,0.1-11.108-0.74-4.459-2.08-7.615-4.41-10.356-0.75-0.876-1.02-1.298-0.92-1.461,0.1-0.127,1.7-8.278,3.64-18.115,1.92-9.836,3.54-17.915,3.57-17.953,0-0.04,0.92,0.103,1.95,0.315,12.88,2.622,22.53,8.032,29.17,16.358,9.1,11.401,11.85,27.011,8.26,46.866-1.76,9.717-4.68,19.218-8.37,27.188-8.98,19.4-25.43,34.04-45.59,40.6-9.73,3.16-21.34,4.58-33.56,4.09zm-299.9-134.27,45.278-0.148l-8.55,42.068,45.006-42.193,60.73,0.195-59.58,50.885,32.91,81.085,0.1,0.35h-55.635l-15.465-49.4-19.643,16.62-6.939,32.67-45.322,0.11zm118.64,132.04,27.14-132.32l77.25,0.357c8.01,1.117,13.34,2.874,17.82,5.877,6.32,4.24,9.96,10.182,11.35,18.568,0.41,2.444,0.41,9.127,0,12.125-1.88,13.943-7.26,25.329-15.93,33.719-8.04,7.787-18.09,12.457-30.74,14.307-5.1,0.74-6.89,0.83-19.6,0.93l-12.11,0.1-9.57,46.55-45.61-0.2zm72.78-75.529c7.37-0.732,12.08-2.902,15.42-7.103,3.23-4.058,4.39-10.133,2.74-14.326-1.22-3.124-3.2-4.854-6.71-5.871-2.96-0.858-3.57-0.905-12.37-0.972l-8.16-0.06-0.1,0.363-5.71,27.923,6.63,0.209,8.25-0.161z"/>
</svg>
