<svg id="NEOS" xmlns="http://www.w3.org/2000/svg" xmlns:xlink="http://www.w3.org/1999/xlink" width="129.306" height="37.875" viewBox="0 0 129.306 37.875">
  <defs>
    <clipPath id="clip-path">
      <rect id="Rechteck_82" data-name="Rechteck 82" width="129.306" height="37.875" fill="none"/>
    </clipPath>
  </defs>
  <g id="Gruppe_63" data-name="Gruppe 63" clip-path="url(#clip-path)">
    <path id="Pfad_192" data-name="Pfad 192" d="M82.088,0a18.937,18.937,0,1,0,18.938,18.938A18.937,18.937,0,0,0,82.088,0Zm34.038,0c-.6-.01-1.18,0-1.747.045-6.647.471-11.706,5.8-11.276,11.879a9.3,9.3,0,0,0,4.607,7.349,21.265,21.265,0,0,0,5.694,2.383c.556.154,1.115.294,1.681.406,6.515,1.286,6.471,4.694,5,6.138a5.7,5.7,0,0,1-3.6,1.537c-1.4.1-5.479.094-9.473-4.556l-5.774,6.2c2.715,2.482,8.117,6.488,14.688,6.488q.56,0,1.132-.039a13.711,13.711,0,0,0,8.823-4,11.516,11.516,0,0,0,3.414-8.842c-.161-2.279-1.2-5.518-5.216-8.006a26.58,26.58,0,0,0-7.428-2.874,17.16,17.16,0,0,1-4.561-1.676,1.937,1.937,0,0,1-.884-1.609c-.1-1.385,1.419-2.519,3.753-2.684a13.5,13.5,0,0,1,8.11,2.147l5.274-6.246A20.63,20.63,0,0,0,116.126,0M0,.824V37.051H8.233V15.4l14.821,21.65h8.234V.824H23.054V22.459L8.233.824Zm35.817,0V37.051H61.341V28.818H44.05V23.056H58.871V14.822H44.05V9.057H61.341V.824H35.817ZM81.788,8.23a10.7,10.7,0,0,1,.571,21.4q-.146,0-.291,0a10.653,10.653,0,0,1-5.6-1.582l-4.345.854.851-4.332A10.7,10.7,0,0,1,81.788,8.23" fill="#cb1667"/>
  </g>
</svg>
