<svg xmlns="http://www.w3.org/2000/svg" width="131.236" height="42.766" viewBox="0 0 131.236 42.766">
  <g id="Volkspartei" transform="translate(-52.42 331.686)">
    <g id="layer1" transform="translate(52.42 -331.686)">
      <g id="layer1-3" transform="translate(0 0)">
        <g id="g901-0-6-7-0-8" transform="translate(0 0)">
          <g id="g857-0-71-60-4-5" transform="translate(0 20.061)">
            <path id="path833-9-7-9-8-6" d="M625.7,923.45a5.93,5.93,0,0,0-6.2,6.3c0,3.97,2.4,6.494,6.224,6.494,3.725,0,6.175-2.549,6.175-6.4C631.9,925.974,629.451,923.45,625.7,923.45Zm0,9.755c-1.643,0-2.622-1.274-2.622-3.406,0-2.036,1.029-3.31,2.622-3.31,1.618,0,2.622,1.274,2.622,3.359S627.318,933.2,625.7,933.2Z" transform="translate(-605.627 -918.247)"/>
            <path id="path835-5-13-3-2-5" d="M783.222,875.718V861.11h-5.171v3.04h1.643v11.567h-1.839v3.04h7.01v-3.04Z" transform="translate(-750.781 -861.103)"/>
            <path id="path837-4-8-3-0-8" d="M887.789,875.718l-3.307-3.553,2.794-2.524h1.176V866.65H882.08v2.7h1.274l-3.138,2.77,3.433,3.848h-.832v2.794h6.519v-3.04Zm-7.72.245V861.11H874.9v3.04h1.643v11.567H874.9v3.04h6.052v-2.794Z" transform="translate(-839.737 -861.103)"/>
            <path id="path839-6-6-7-6-9" d="M1064.929,929.551a8.641,8.641,0,0,0-3.384-1.152c-2.475-.54-2.745-.66-2.745-1.3,0-.614.442-.881,1.446-.881a12.413,12.413,0,0,1,2.18.2v1.323h2.941v-3.8a32.416,32.416,0,0,0-5.171-.491,5.047,5.047,0,0,0-3.676,1.1,3.646,3.646,0,0,0-1.176,2.868c0,2.156,1.127,3.064,4.83,3.8a9.955,9.955,0,0,1,2.156.516c.344.172.516.393.516.638,0,.66-.611,1.053-1.643,1.053a11,11,0,0,1-2.794-.368v-1.5h-2.941v3.9a20.175,20.175,0,0,0,5.638.783c3.285,0,5.073-1.4,5.073-3.946A3.206,3.206,0,0,0,1064.929,929.551Z" transform="translate(-1005.145 -918.246)"/>
            <path id="path841-7-1-88-1-3" d="M1201.1,923.45a4.637,4.637,0,0,0-3.482,1.446v-1.1h-4.778v3.04h1.643v11.079h-1.643v3.04H1200v-3.04h-1.986v-2.77a4.232,4.232,0,0,0,2.991,1.1c3.261,0,5.441-2.549,5.441-6.4C1206.442,925.974,1204.336,923.45,1201.1,923.45Zm-.587,9.755c-1.544,0-2.5-1.3-2.5-3.406,0-2.011.98-3.31,2.5-3.31,1.471,0,2.352,1.274,2.352,3.359S1201.981,933.2,1200.512,933.2Z" transform="translate(-1131.18 -918.247)"/>
            <path id="path843-5-0-7-2-7" d="M1378.994,933.131v-4.069a6.609,6.609,0,0,0-.516-3.236c-.71-1.373-2.352-2.082-4.852-2.082a14.626,14.626,0,0,0-4.778.808l.759,2.892a10.439,10.439,0,0,1,3.774-.832c1.544,0,2.082.368,2.082,1.373v.516a24.543,24.543,0,0,0-3.9.2c-2.573.417-3.848,1.741-3.848,3.995,0,2.451,1.569,3.823,4.363,3.823a4.79,4.79,0,0,0,3.75-1.446v1.1h4.754v-3.04Zm-3.528-1.225c0,.661-.074.857-.417,1.127a3.574,3.574,0,0,1-2.18.54c-1.176,0-1.618-.295-1.618-1.029s.516-1.152,1.618-1.348a15.869,15.869,0,0,1,2.6-.123Z" transform="translate(-1291.484 -918.517)"/>
            <path id="path845-8-8-6-3-3" d="M1539.393,923.155c-1.3,0-2.011.417-3.285,1.986v-1.618h-5v3.04h1.643v6.03h-1.643v3.04h7.427v-3.04h-2.254V928.4c.931-1.471,1.79-2.058,2.942-2.058a4.88,4.88,0,0,1,1.766.319l.466-3.138A5.857,5.857,0,0,0,1539.393,923.155Z" transform="translate(-1441.256 -917.976)"/>
            <path id="path847-2-1-0-2-8" d="M1671.763,908.306a4.786,4.786,0,0,1-2.084.54c-1.274,0-1.569-.442-1.569-2.3v-4.069h3.8v-3.04h-3.8v-2.558h-2.981l-.55,2.558h-1.986v3.04h1.986v4.56c0,3.307,1.471,4.852,4.655,4.852a7.924,7.924,0,0,0,3.212-.685Z" transform="translate(-1561.781 -893.888)"/>
            <path id="path849-9-9-0-2-5" d="M1793.4,933.232a2.527,2.527,0,0,1-2.819-2.2h8.456a10.764,10.764,0,0,0-.611-4.216,5.359,5.359,0,0,0-5.318-3.332c-3.774,0-6.1,2.45-6.1,6.4,0,3.97,2.426,6.421,6.323,6.421a10.272,10.272,0,0,0,5.613-1.667l-1.569-2.647A7.022,7.022,0,0,1,1793.4,933.232Zm-.344-6.838a2.33,2.33,0,0,1,2.549,2.035h-5.024A2.347,2.347,0,0,1,1793.058,926.393Z" transform="translate(-1675.825 -918.273)"/>
            <path id="path851-8-5-3-5-4" d="M1944.9,861.022v2.988h3.531v-2.988Zm3.823,14.614v-9.068h-5.171v3.04h1.643v6.03h-1.839v3.04h7.01v-3.04h-1.643Z" transform="translate(-1819.143 -861.022)"/>
            <g id="g855-0-27-9-7-9" transform="translate(0 0.007)">
              <path id="path853-3-0-7-3-9" d="M453.019,861.11h6.887v3.04h-1.618l1.937,6.3a22.051,22.051,0,0,1,.832,3.04c.295-1.422.319-1.5.737-3.04l1.643-6.3h-1.716v-3.04h6.887v3.04h-1.5l-4.682,14.975h-2.671l-5.294-14.975h-1.446Z" transform="translate(-453.019 -861.11)"/>
            </g>
          </g>
          <g id="g865-0-6-1-1-4" transform="translate(52.248)">
            <path id="path859-7-04-5-3-2" d="M1084.429,620.327h-4.513v1.439h1.439v11.128h-1.439v1.439h4.513a6.983,6.983,0,0,0,4.9-1.576,6.858,6.858,0,0,0,2.1-5.429C1091.434,622.856,1088.905,620.327,1084.429,620.327Zm.039,12.567h-1.4V621.766h1.4c3.366,0,5.215,1.964,5.215,5.564S1087.835,632.894,1084.468,632.894Z" transform="translate(-1079.916 -620.327)"/>
            <path id="path861-7-6-58-8-2" d="M1232.621,631.522v1.945h1.888v-1.945Zm2.023,11.634v-7.761h-3.094v1.439h1.439v6.323h-1.5v1.439h4.533v-1.439Z" transform="translate(-1218.859 -630.589)"/>
            <path id="path863-4-5-1-0-1" d="M1299.886,683.018a2.73,2.73,0,0,1-2.431-1.169,3.974,3.974,0,0,1-.506-1.905h7.1a6.23,6.23,0,0,0-.643-3.055,3.877,3.877,0,0,0-3.659-2.178c-2.7,0-4.474,1.945-4.474,4.923,0,3,1.731,4.825,4.552,4.825a7.2,7.2,0,0,0,4.007-1.166l-.8-1.284A5.458,5.458,0,0,1,1299.886,683.018Zm-.157-6.907c1.458,0,2.394.874,2.667,2.529h-5.409A2.725,2.725,0,0,1,1299.729,676.111Z" transform="translate(-1277.326 -670.179)"/>
          </g>
          <rect id="rect867-4-8-5-4-4" width="44.791" height="3.05" transform="translate(86.444 5.537)" fill="#63c3d1"/>
          <g id="g871-2-7-2-2-2" transform="translate(0.01 5.542)">
            <rect id="rect869-0-1-8-7-6" width="44.133" height="3.05" fill="#63c3d1"/>
          </g>
        </g>
      </g>
    </g>
  </g>
</svg>
