<?xml version="1.0" standalone="no"?>
<!DOCTYPE svg PUBLIC "-//W3C//DTD SVG 20010904//EN"
 "http://www.w3.org/TR/2001/REC-SVG-20010904/DTD/svg10.dtd">
<svg version="1.0" xmlns="http://www.w3.org/2000/svg"
 width="180.000000pt" height="180.000000pt" viewBox="0 0 180.000000 180.000000"
 preserveAspectRatio="xMidYMid meet">
<metadata>
Created by potrace 1.14, written by Peter Selinger 2001-2017
</metadata>
<g transform="translate(0.000000,180.000000) scale(0.100000,-0.100000)"
fill="#000000" stroke="none">
<path d="M0 900 l0 -900 900 0 900 0 0 900 0 900 -900 0 -900 0 0 -900z m856
280 c15 -6 44 -24 64 -40 37 -29 38 -29 43 -9 11 40 32 14 38 -47 4 -32 14
-81 23 -109 23 -66 23 -169 2 -220 -10 -22 -16 -60 -15 -87 2 -26 0 -51 -4
-54 -11 -12 -26 7 -33 41 l-6 34 -47 -6 c-103 -12 -152 53 -159 212 -4 85 1
117 34 233 5 16 2 22 -10 22 -22 0 -21 27 2 33 29 8 40 7 68 -3z"/>
<path d="M824 1083 c-23 -77 -29 -199 -14 -262 17 -70 43 -101 85 -101 66 0
65 -3 65 163 0 147 -1 152 -27 190 -22 32 -68 67 -87 67 -2 0 -12 -26 -22 -57z"/>
<path d="M1002 850 c0 -14 2 -19 5 -12 2 6 2 18 0 25 -3 6 -5 1 -5 -13z"/>
</g>
</svg>
