<!DOCTYPE svg PUBLIC "-//W3C//DTD SVG 20010904//EN" "http://www.w3.org/TR/2001/REC-SVG-20010904/DTD/svg10.dtd">
<svg version="1.0" xmlns="http://www.w3.org/2000/svg" width="1437px" height="1428px" viewBox="0 0 14370 14280" preserveAspectRatio="xMidYMid meet">
<g id="layer101" fill="#572c82" stroke="none">
 <path d="M6590 14274 c0 -5 206 -653 216 -679 3 -6 -133 -110 -302 -230 l-306 -220 379 -3 378 -2 114 -360 c63 -198 117 -360 120 -360 3 0 58 162 121 360 l114 360 374 0 c223 0 371 4 368 9 -4 5 -139 105 -301 221 -162 117 -295 214 -295 217 0 3 47 150 104 327 57 176 107 332 111 345 6 20 4 23 -11 19 -11 -3 -146 -98 -302 -211 l-282 -207 -288 210 c-258 188 -312 224 -312 204z"/>
 <path d="M3526 13333 c24 -76 75 -235 113 -353 38 -118 67 -218 65 -221 -2 -3 -136 -102 -299 -218 -162 -117 -297 -217 -301 -222 -3 -5 147 -9 373 -9 l379 0 114 -355 c62 -195 116 -355 119 -355 3 0 34 89 69 198 35 108 86 268 114 355 l51 157 374 0 c211 0 373 4 373 9 0 5 -133 104 -295 220 -162 117 -296 215 -299 220 -3 4 44 160 104 347 61 186 109 345 107 352 -1 7 -133 -83 -296 -203 -162 -118 -298 -215 -301 -215 -4 0 -139 97 -301 215 -162 118 -297 215 -300 215 -4 0 13 -62 37 -137z"/>
 <path d="M9706 13393 c13 -43 64 -202 113 -353 49 -151 87 -278 85 -281 -2 -3 -136 -102 -299 -218 -162 -117 -297 -217 -301 -222 -3 -5 147 -9 373 -9 l379 0 113 -355 c63 -195 117 -355 120 -355 4 0 32 82 64 183 32 100 83 260 114 355 l56 172 373 0 c207 0 374 4 374 9 0 5 -134 104 -297 221 -164 117 -300 214 -302 216 -2 2 47 159 108 349 62 191 111 351 109 356 -2 5 -136 -88 -298 -206 -162 -118 -301 -213 -308 -210 -7 3 -143 99 -301 215 -159 115 -291 210 -294 210 -3 0 6 -35 19 -77z"/>
 <path d="M1210 11186 c0 -3 50 -159 110 -346 61 -187 110 -344 110 -349 0 -5 -136 -108 -302 -228 l-303 -218 377 -3 376 -2 21 -63 c11 -34 61 -190 111 -347 109 -342 99 -314 106 -308 3 3 56 165 118 359 l114 354 378 5 378 5 -285 204 c-156 113 -293 212 -305 221 -21 15 -21 16 92 365 63 193 114 351 114 353 1 13 -54 -25 -281 -191 -145 -106 -278 -202 -295 -215 l-31 -22 -289 211 c-278 204 -314 228 -314 215z"/>
 <path d="M11961 11184 c0 -5 51 -164 112 -354 l113 -345 -306 -220 -305 -220 377 -3 377 -2 60 -188 c33 -103 84 -262 114 -354 29 -93 56 -170 59 -174 6 -6 16 22 153 448 l86 268 377 2 376 3 -284 204 c-157 113 -294 212 -306 220 -20 16 -20 17 93 366 62 193 113 352 113 354 0 11 -58 -29 -312 -215 -156 -114 -288 -207 -293 -207 -6 0 -138 93 -294 207 -281 206 -312 226 -310 210z"/>
 <path d="M7020 8735 c-8 -2 -49 -9 -90 -15 -271 -44 -553 -212 -729 -434 -109 -137 -201 -327 -236 -487 l-16 -76 51 -124 c110 -262 381 -950 404 -1026 9 -29 147 -117 261 -166 154 -67 256 -89 445 -94 129 -4 185 -2 255 12 522 97 911 497 991 1017 29 189 5 428 -60 601 -184 488 -637 801 -1151 796 -60 -1 -117 -3 -125 -4z m255 -630 c39 -8 104 -31 145 -51 99 -49 222 -170 268 -265 132 -272 49 -586 -200 -756 -181 -123 -410 -136 -602 -35 -319 167 -419 565 -217 860 136 199 373 296 606 247z"/>
 <path d="M10129 8715 c-187 -30 -336 -102 -449 -215 -87 -87 -131 -157 -171 -272 -65 -190 -62 -137 -66 -1410 -2 -637 -1 -1158 1 -1158 3 0 147 -22 321 -50 174 -27 325 -50 335 -50 19 0 20 10 20 375 l0 375 305 0 305 0 0 280 0 280 -306 0 -305 0 4 503 c3 536 3 531 55 633 62 122 190 166 416 143 94 -9 249 -42 307 -64 12 -4 18 1 22 17 20 80 88 491 84 502 -7 16 -156 68 -282 97 -119 27 -465 36 -596 14z"/>
 <path d="M4611 8643 c-10 -21 -67 -144 -126 -273 -351 -770 -723 -1707 -1026 -2582 l-78 -228 392 0 392 0 97 288 c277 826 694 1972 717 1972 23 0 456 -1187 714 -1957 l102 -303 377 0 c208 0 378 2 378 4 0 2 -62 179 -139 393 -337 941 -645 1714 -973 2436 l-131 287 -338 0 -339 0 -19 -37z"/>
 <path d="M8550 7170 c0 -830 2 -1510 5 -1510 2 0 146 -22 320 -50 174 -27 325 -50 335 -50 20 0 20 19 20 1560 l0 1560 -340 0 -340 0 0 -1510z"/>
 <path d="M380 8071 c0 -4 50 -161 110 -349 61 -187 110 -342 110 -344 0 -2 -135 -101 -300 -219 -165 -118 -300 -217 -300 -221 0 -5 168 -8 373 -8 l373 0 115 -360 c63 -198 116 -360 119 -360 3 0 57 162 120 360 l115 360 378 2 378 3 -298 214 c-164 118 -301 217 -305 221 -5 3 43 164 106 358 62 194 109 352 104 352 -6 0 -142 -97 -304 -215 l-293 -215 -293 215 c-161 118 -296 215 -300 215 -5 0 -8 -4 -8 -9z"/>
 <path d="M12784 8063 c54 -160 225 -697 223 -699 -1 -1 -139 -100 -307 -220 l-305 -219 380 -3 380 -2 114 -360 c63 -198 118 -357 122 -353 5 6 187 568 224 691 l6 22 375 0 c206 0 374 3 374 8 0 4 -135 104 -300 222 -165 118 -300 217 -300 219 0 3 50 160 111 349 60 189 109 347 107 352 -2 4 -137 -90 -301 -210 l-299 -218 -281 205 c-155 113 -289 212 -298 219 -21 19 -32 18 -25 -3z"/>
 <path d="M1215 4958 c4 -13 54 -168 111 -344 57 -177 104 -327 104 -332 0 -6 -133 -106 -295 -223 -163 -116 -298 -216 -301 -220 -3 -5 163 -9 370 -9 l374 0 31 -92 c16 -51 66 -208 111 -348 45 -140 83 -261 86 -269 2 -8 7 -12 9 -9 3 3 56 164 119 359 l113 354 379 5 379 5 -250 180 c-137 98 -275 198 -306 220 l-56 41 113 349 c130 401 116 355 105 355 -6 0 -528 -374 -586 -421 -7 -5 -126 76 -305 206 -162 118 -298 215 -303 215 -5 0 -5 -10 -2 -22z"/>
 <path d="M11960 4973 c0 -4 49 -162 110 -349 60 -188 110 -346 110 -352 0 -5 -133 -105 -295 -221 -162 -117 -297 -216 -300 -221 -4 -6 131 -10 369 -10 l375 0 81 -252 c129 -401 152 -470 156 -465 3 3 56 164 118 358 l113 354 379 5 379 5 -35 26 c-19 15 -157 114 -306 221 l-271 194 113 349 c63 193 112 353 111 358 -1 4 -126 -83 -277 -194 -151 -110 -286 -209 -300 -219 l-26 -18 -259 190 c-322 235 -345 251 -345 241z"/>
 <path d="M3480 2704 c0 -3 50 -160 110 -347 61 -188 110 -346 110 -352 0 -5 -135 -107 -300 -225 -165 -118 -300 -218 -300 -222 0 -4 169 -9 376 -10 l377 -3 111 -348 c61 -192 115 -348 120 -348 5 0 59 157 121 348 l111 348 377 3 c207 1 377 6 377 10 0 4 -135 104 -300 222 -165 118 -300 220 -300 227 0 6 50 165 110 354 61 188 109 344 106 346 -2 2 -138 -94 -303 -214 l-298 -219 -298 218 c-164 120 -300 218 -303 218 -2 0 -4 -3 -4 -6z"/>
 <path d="M9694 2695 c3 -8 53 -164 112 -347 58 -183 108 -336 110 -340 3 -3 -133 -105 -300 -225 -168 -120 -305 -221 -305 -225 -1 -5 169 -8 377 -8 l377 0 58 -182 c32 -101 83 -261 113 -355 31 -95 58 -173 62 -173 4 0 26 60 49 133 23 72 74 232 113 355 l71 222 375 0 c206 0 374 4 374 8 0 4 -134 104 -297 222 -164 117 -300 215 -302 216 -2 2 47 161 109 354 62 193 111 353 108 355 -2 3 -134 -90 -293 -206 -158 -116 -294 -213 -300 -216 -7 -2 -145 93 -308 211 -162 119 -298 216 -302 216 -4 0 -5 -7 -1 -15z"/>
 <path d="M6596 1828 c87 -260 211 -664 205 -668 -4 -3 -142 -102 -306 -220 l-299 -215 380 -3 379 -3 115 -359 c63 -198 117 -357 121 -352 4 4 58 166 120 359 l113 353 373 0 c205 0 373 3 373 8 -1 4 -136 103 -300 221 -165 118 -300 217 -300 219 0 2 50 159 111 349 61 189 109 347 106 350 -7 6 6 15 -336 -234 l-263 -192 -72 53 c-256 189 -517 376 -525 376 -6 0 -3 -19 5 -42z"/>
 </g>

</svg>